<svg width="98" height="81" viewBox="0 0 98 81" fill="none" xmlns="http://www.w3.org/2000/svg">
<path d="M58.2365 2.9975C58.7102 3.4511 60.7355 5.18449 62.4015 6.78828C72.8793 16.2247 90.0293 40.8405 95.2642 53.7275C96.1053 55.6877 97.8857 60.6367 98 63.2773C98 65.8126 97.412 68.2183 96.2197 70.5268C94.5537 73.4022 91.9322 75.7107 88.837 76.9662C86.6892 77.7762 80.262 79.0398 80.1477 79.0398C73.1162 80.3034 61.691 81 49.0653 81C37.0358 81 26.0762 80.3034 18.9385 79.2747C18.8242 79.1532 10.8372 77.8977 8.1013 76.5126C3.1033 73.9773 -3.01732e-06 69.0283 -2.78577e-06 63.7309L-2.76594e-06 63.2773C0.122495 59.8267 3.2258 52.5773 3.3402 52.5773C8.5832 40.3869 24.892 16.3381 35.7292 6.66678C35.7292 6.66678 38.514 3.9452 40.2535 2.76261C42.7768 0.942335 45.8228 -0.0259133 48.9428 0.000525233C52.3973 0.000525343 55.615 1.03731 58.2365 2.9975Z" fill="black"/>
</svg>
