<svg width="100" height="100" viewBox="0 0 100 100" fill="none" xmlns="http://www.w3.org/2000/svg">
<path d="M14 37.5C14 43.7326 16.4759 49.7099 20.883 54.117C25.2901 58.5241 31.2674 61 37.5 61C43.7326 61 49.7099 58.5241 54.117 54.117C58.5241 49.7099 61 43.7326 61 37.5C61 31.2674 58.5241 25.2901 54.117 20.883C49.7099 16.4759 43.7326 14 37.5 14C31.2674 14 25.2901 16.4759 20.883 20.883C16.4759 25.2901 14 31.2674 14 37.5Z" fill="#CE52B9"/>
<path d="M96.1865 2.84082L73.3945 5.57324C72.6738 5.65918 72.3691 6.53906 72.8828 7.05273L80.9639 15.1338C79.4834 17.1504 78.25 19.3369 77.2813 21.6758C75.6992 25.4941 74.8975 29.5264 74.8975 33.6592V49.8301C74.8975 63.6504 63.6543 74.8936 49.834 74.8936H33.4717C29.3086 74.8936 25.25 75.707 21.4082 77.3105C17.5664 78.9141 14.1348 81.2285 11.207 84.1875L4.80762 90.6582C3.59375 91.8857 3.60449 93.8643 4.83203 95.0771C5.44141 95.6797 6.23535 95.9805 7.0293 95.9805C7.82324 95.9805 8.63965 95.6709 9.25098 95.0527L15.6504 88.582C20.3262 83.8545 26.8213 81.1426 33.4707 81.1426H49.833C58.1973 81.1426 66.0606 77.8857 71.9746 71.9707C77.8887 66.0557 81.1465 58.1934 81.1465 49.8291V33.6582C81.1465 28.5772 82.6494 23.7275 85.4434 19.6143L92.9404 27.1113C93.4541 27.625 94.333 27.3203 94.4199 26.5996L97.1524 3.80762C97.2197 3.24805 96.7451 2.77344 96.1846 2.83984L96.1865 2.84082Z" fill="white"/>
</svg>
