<svg width="44" height="88" viewBox="0 0 44 88" fill="none" xmlns="http://www.w3.org/2000/svg">
<path d="M36.6602 38.2812C36.4258 38.1836 36.1914 38.0859 35.9766 37.9492C34.6094 37.168 33.5937 35.8203 33.2617 34.1992L29.6484 11.2109L29.6094 10.0781C29.6094 8.69141 30.4102 8.08594 31.5625 7.53906C31.6992 7.48047 31.8359 7.42187 31.9727 7.36328C33.3789 6.69922 34.3359 5.83984 34.3359 4.17969C34.3359 0.253906 33.0664 0 30.7813 0H12.9492C10.6641 0 9.39453 0.234375 9.39453 4.17969C9.39453 5.83984 10.3516 6.69922 11.7578 7.36328C11.8945 7.42187 12.0312 7.46094 12.168 7.53906C13.3203 8.10547 14.1211 8.71094 14.1211 10.0781L14.082 11.2109L10.4687 34.1992C10.1367 35.8203 9.12109 37.168 7.75391 37.9492C7.53906 38.0859 7.30469 38.1836 7.07031 38.2812C3.22266 40.2734 0 44.2969 0 48.9648C0 52.0703 0.683593 53.125 2.96875 53.125H18.7305L21.0742 87.5H22.6367L24.9805 53.125H40.7617C43.0469 53.125 43.7305 52.207 43.7305 48.9648C43.7305 44.2969 40.5078 40.2734 36.6602 38.2812Z" fill="white"/>
</svg>
